<?xml version="1.0" standalone="no"?>
<!DOCTYPE svg PUBLIC "-//W3C//DTD SVG 20010904//EN"
 "http://www.w3.org/TR/2001/REC-SVG-20010904/DTD/svg10.dtd">
<svg version="1.0" xmlns="http://www.w3.org/2000/svg"
 width="512.000000pt" height="512.000000pt" viewBox="0 0 512.000000 512.000000"
 preserveAspectRatio="xMidYMid meet">

<g transform="translate(0.000000,512.000000) scale(0.100000,-0.100000)"
fill="#000000" stroke="none">
<path d="M3150 4227 c51 -77 97 -185 115 -272 9 -44 17 -81 19 -82 1 -1 29 24
61 57 l60 60 -144 143 c-107 106 -135 130 -111 94z"/>
<path d="M2457 4229 c-49 -12 -132 -54 -180 -92 -138 -111 -187 -335 -109
-500 40 -87 115 -165 196 -207 57 -28 78 -33 188 -41 67 -5 158 -16 202 -25
491 -96 838 -541 813 -1043 -10 -217 -88 -418 -226 -588 l-51 -63 242 0 243 0
-108 108 -107 107 108 108 107 107 293 -293 292 -292 -295 -295 -295 -295
-107 108 -108 107 110 110 110 110 -1335 0 -1335 0 680 -680 680 -680 95 0
c854 1 1654 432 2134 1150 87 130 217 386 271 534 64 174 124 439 141 616 l6
65 -839 835 c-461 459 -790 785 -730 725 l107 -110 -258 -258 -257 -257 -258
258 -257 257 103 103 102 102 79 -78 78 -77 -5 38 c-20 135 -153 279 -296 321
-59 17 -163 20 -224 5z"/>
<path d="M2390 3059 c-204 -52 -378 -192 -465 -374 -46 -96 -64 -172 -71 -295
l-6 -105 111 110 111 110 107 -108 108 -107 -293 -293 c-282 -282 -292 -294
-274 -310 17 -15 60 -17 483 -17 523 0 535 2 679 72 111 55 247 187 302 293
156 301 95 647 -154 869 -76 68 -214 138 -315 160 -97 22 -230 20 -323 -5z"/>
</g>
</svg>
